<svg width="48" height="48" viewBox="0 0 48 48" fill="none" xmlns="http://www.w3.org/2000/svg">
<g clip-path="url(#clip0)">
<path d="M24 0.999756C10.74 0.999756 0 11.5598 0 24.5838C0 35.0058 6.876 43.8438 16.41 46.9598C17.61 47.1818 18.05 46.4518 18.05 45.8258C18.05 45.2658 18.03 43.7818 18.02 41.8158C11.344 43.2378 9.936 38.6518 9.936 38.6518C8.844 35.9298 7.266 35.2018 7.266 35.2018C5.092 33.7398 7.434 33.7698 7.434 33.7698C9.844 33.9338 11.11 36.1998 11.11 36.1998C13.25 39.8058 16.728 38.7638 18.1 38.1618C18.316 36.6358 18.934 35.5978 19.62 35.0078C14.29 34.4178 8.688 32.3898 8.688 23.3538C8.688 20.7798 9.618 18.6758 11.158 17.0258C10.888 16.4298 10.078 14.0318 11.368 10.7838C11.368 10.7838 13.378 10.1518 17.968 13.2018C19.888 12.6778 21.928 12.4178 23.968 12.4058C26.008 12.4178 28.048 12.6778 29.968 13.2018C34.528 10.1518 36.538 10.7838 36.538 10.7838C37.828 14.0318 37.018 16.4298 36.778 17.0258C38.308 18.6758 39.238 20.7798 39.238 23.3538C39.238 32.4138 33.628 34.4078 28.288 34.9878C29.128 35.6958 29.908 37.1418 29.908 39.3518C29.908 42.5078 29.878 45.0438 29.878 45.8098C29.878 46.4278 30.298 47.1658 31.528 46.9298C41.13 43.8338 48 34.9898 48 24.5838C48 11.5598 37.254 0.999756 24 0.999756Z" fill="#212121"/>
</g>
<defs>
<clipPath id="clip0">
<rect width="48" height="48" fill="white"/>
</clipPath>
</defs>
</svg>
