<svg width="48" height="48" viewBox="0 0 48 48" fill="none" xmlns="http://www.w3.org/2000/svg">
<path d="M1.5587 45.923H7.79877C8.65966 45.923 9.35747 45.2251 9.35747 44.3642V17.089C9.35747 16.228 8.65966 15.5303 7.79877 15.5303H1.5587C0.697722 15.5303 0 16.228 0 17.089V44.3642C0 45.225 0.697722 45.923 1.5587 45.923Z" fill="black"/>
<path d="M1.5587 10.7353H7.79877C8.65966 10.7353 9.35747 10.0375 9.35747 9.17658V3.63536C9.35747 2.77447 8.65966 2.07666 7.79877 2.07666H1.5587C0.697722 2.07666 0 2.77447 0 3.63536V9.17658C0 10.0375 0.697722 10.7353 1.5587 10.7353Z" fill="black"/>
<path d="M45.6523 18.6941C44.7755 17.5399 43.4825 16.5907 41.7729 15.8467C40.0633 15.1032 38.1762 14.7312 36.1115 14.7312C31.9201 14.7312 28.3685 16.3308 25.4569 19.5306C24.8775 20.1673 24.4563 20.0281 24.4563 19.1671V17.0892C24.4563 16.2282 23.7584 15.5305 22.8975 15.5305H17.3233C16.4624 15.5305 15.7646 16.2282 15.7646 17.0892V44.3645C15.7646 45.2254 16.4625 45.9233 17.3233 45.9233H23.5634C24.4244 45.9233 25.1221 45.2254 25.1221 44.3645V34.8788C25.1221 30.9271 25.3607 28.2185 25.838 26.7533C26.3151 25.2881 27.1978 24.1116 28.4854 23.2235C29.7732 22.3355 31.2272 21.8912 32.848 21.8912C34.1134 21.8912 35.1958 22.2021 36.0951 22.8239C36.9943 23.4457 37.6437 24.3166 38.0433 25.438C38.4431 26.5592 38.6428 29.029 38.6428 32.8477V44.3644C38.6428 45.2253 39.3405 45.9232 40.2014 45.9232H46.4415C47.3024 45.9232 48.0001 45.2253 48.0001 44.3644V28.9179C48.0001 26.1874 47.828 24.0893 47.4842 22.6241C47.1404 21.1589 46.5297 19.8489 45.6523 18.6941Z" fill="black"/>
</svg>
