<svg width="846" height="585" viewBox="0 0 846 585" fill="none" xmlns="http://www.w3.org/2000/svg">
<g clip-path="url(#clip0)">
<rect width="846" height="585" fill="white"/>
<g opacity="0.504511">
<path fill-rule="evenodd" clip-rule="evenodd" d="M845.635 381.632C857.258 461.694 575.364 513.916 332.731 477.472C90.0984 441.028 -21.21 298.709 94.5703 222.876C210.351 147.043 834.011 301.57 845.635 381.632Z" fill="#F2F2F2"/>
</g>
<g opacity="0.5">
<path fill-rule="evenodd" clip-rule="evenodd" d="M179.223 112.445C183.425 106.453 191.224 91.2348 197.138 89.0936C200.948 87.7146 199.837 101.98 199.884 104.7C200.067 115.224 199.043 125.681 197.778 136.116C195.498 154.937 188.045 171.697 177.822 187.715C172.562 195.957 166.391 204.3 157.845 209.442C153.912 211.811 149.179 212.207 145.294 214.248C140.769 216.623 143.233 214.703 141.194 219.417C138.363 225.963 137.457 234.408 136.147 241.392C130.132 273.455 115.568 442.945 118.093 475.558C118.317 478.449 114.287 479.14 114.085 475.611C113.016 456.9 122.27 327.322 126.94 284.947C131.609 242.571 136.334 205.134 141.071 190.474C146.819 172.687 157.199 151.298 165.84 134.711C169.854 127.006 174.229 119.565 179.223 112.445Z" fill="#505050"/>
<path fill-rule="evenodd" clip-rule="evenodd" d="M210.414 320.278C221.349 312.25 233.186 327.401 223.29 335.43C217.82 339.868 212.101 338.29 208.882 334.591C206.792 337.139 204.836 339.803 202.956 342.052C197.229 348.909 191.817 355.928 186.644 363.111C175.898 378.035 166.689 393.801 157.06 409.278C147.558 424.554 138.132 439.908 129.519 455.571C122.223 468.841 112.498 484.452 110 499C113.79 468.146 128.172 438.49 145.298 411.291C162.285 384.314 181.779 354.853 208.081 333.564C205.404 329.627 205.33 324.008 210.414 320.278Z" fill="#D6D6D6"/>
<path fill-rule="evenodd" clip-rule="evenodd" d="M2.9132 245.031C9.03244 246.227 19.0312 260.07 24.0753 265.344C30.0699 271.612 35.5084 278.292 40.6349 285.292C51.6711 300.358 61.5411 316.376 69.9339 333.08C83.6164 360.311 94.5779 388.265 102.533 417.918C107.403 436.069 110.556 454.883 112.424 473.565C112.777 477.089 116.471 504.253 111.148 504.985C106.361 505.644 107.84 484.359 107.609 481.463C104.998 448.798 97.1772 417.015 86.2985 386.226C83.929 379.519 81.7276 371.304 77.9381 365.268C75.2092 360.921 77.9186 362.437 73.1228 360.792C69.0049 359.378 64.3131 359.724 60.0963 357.993C50.9356 354.237 43.6006 346.944 37.1709 339.608C24.6758 325.351 14.774 309.928 9.61264 291.66C6.74947 281.532 4.11836 271.344 2.65826 260.902C2.28056 258.203 -1.02816 244.26 2.9132 245.031Z" fill="#505050"/>
<path fill-rule="evenodd" clip-rule="evenodd" d="M27.0614 14.716C50.1113 54.6904 69.0528 98.6012 81.2834 143.076C88.6937 170.023 93.876 197.675 99.025 225.126C106.997 267.632 114.538 310.134 116.683 353.395C118.841 396.906 123.108 447.092 108.861 489C115.978 446.452 109.202 401.162 108.002 358.35C107.429 337.912 105.768 317.674 103.588 297.355C101.473 277.645 98.0184 258.029 94.8009 238.474C93.2336 228.95 91.5876 219.441 89.9118 209.937C89.4115 207.101 89.2002 198.687 87.4014 196.75C85.5911 194.8 76.3543 194.005 73.4544 192.574C67.6149 189.693 62.1221 185.6 57.2609 181.275C47.9418 172.984 39.8347 162.151 33.4359 151.472C18.6307 126.764 12.7116 96.61 13.0108 67.9942C13.0682 62.4382 22.0034 2.60995 18.4149 1.78607C18.631 1.53303 18.8353 1.27176 19.028 1C21.7448 5.54878 24.4108 10.1284 27.0614 14.716Z" fill="#A8A8A8"/>
<path fill-rule="evenodd" clip-rule="evenodd" d="M275.846 158.887C276.202 158.374 278.517 154.807 277.351 155.035C279.724 154.57 274.087 158.969 280 156.27C277.192 158.922 278.813 162.366 278.85 165.935C278.911 171.73 277.942 177.476 276.851 183.146C275.126 192.109 272.557 200.823 268.828 209.159C260.701 227.326 246.901 244.814 230.518 256.172C222.43 261.779 214.504 263.689 205.28 266.27C199.453 267.901 198.991 270.915 195.898 276.569C189.46 288.345 183.136 300.078 177.457 312.251C170.677 326.788 164.095 341.34 157.886 356.132C136.969 405.957 119.945 457.578 111.005 511C110.786 479.519 118.069 447.095 127.255 417.088C133.947 395.226 142.658 374.151 151.95 353.29C154.201 348.236 157.613 341.735 158.57 336.155C159.239 332.245 157.192 328.486 156.255 324.367C152.601 308.33 152.863 290.363 156.071 274.24C159.609 256.461 169.839 248.209 187.145 245.691C193.474 244.769 201.519 245.107 207.322 242.408C213.645 239.47 216.253 229.81 219.849 223.61C229.506 206.953 240.98 190.979 254.155 176.945C257.803 173.059 261.726 169.473 265.888 166.15C268.513 164.053 274.058 161.47 275.846 158.887Z" fill="#A8A8A8"/>
<path fill-rule="evenodd" clip-rule="evenodd" d="M76.845 482.729C76.3997 479.71 78.7396 477 81.7915 477H143.209C146.26 477 148.6 479.71 148.155 482.729L143.408 514.918C141.961 524.73 133.541 532 123.622 532H101.378C91.4592 532 83.039 524.73 81.5919 514.918L76.845 482.729Z" fill="#D6D6D6"/>
</g>
<path fill-rule="evenodd" clip-rule="evenodd" d="M26.4177 493.456C26.4177 514.743 28.0976 532 50.6456 532C73.1935 532 74.8734 514.743 74.8734 493.456" fill="#F2F2F2"/>
<path fill-rule="evenodd" clip-rule="evenodd" d="M57.3534 480.174C56.5269 481.603 55.79 483.061 55.139 484.54C55.116 481.493 55.2845 478.424 55.7446 475.313C56.531 469.983 57.7322 464.682 58.8609 459.388C59.6721 455.584 59.6208 448.752 62.6994 445.72C63.5436 445.065 63.7468 446.351 63.7468 446.908C63.7575 447.026 63.7445 444.632 62.9251 445.049C58.0544 447.564 56.4763 455.474 54.9169 459.434C52.6418 465.215 50.7061 471.124 49.909 477.138C49.7076 478.657 49.598 480.176 49.5727 481.692C49.4071 481.287 49.2516 480.878 49.0796 480.474C46.2684 473.881 42.4747 467.447 37.7431 461.514C36.5784 460.054 21.9342 445.649 20.7878 447.854C20.9009 448.174 21.1377 448.44 21.4988 448.651C21.52 448.675 21.5206 448.662 21.5083 448.626C22.3683 450.016 24.8137 452.161 25.5754 453.379C27.4923 456.442 28.9821 459.693 30.4961 462.882C33.6948 469.622 36.6621 476.429 39.5386 483.25C40.2084 484.839 40.9065 486.419 41.6187 487.994C34.2769 477.405 24.4826 467.791 11 462.287C15.6049 464.63 18.624 469.037 21.7339 472.412C25.4846 476.483 29.4351 480.444 33.1929 484.51C37.6253 489.307 42.8405 494.358 47.1038 499.666C51.2333 508.336 55.2462 517.015 57.7234 526.128C56.7084 522.98 57.6438 518.628 57.4701 515.324C57.3322 512.693 57.0247 510.084 56.6035 507.48C57.1243 508.655 57.5732 509.83 57.7764 510.924C57.5908 509.09 57.377 507.268 57.1472 505.455C57.7369 503.758 58.316 502.175 58.7072 500.87C60.7118 494.179 63.0988 487.602 66.3495 481.193C69.3574 475.264 72.8077 469.41 76.5673 463.735C78.321 461.089 80.0989 458.453 81.8656 455.812C83.022 454.083 84.123 451.316 85.733 449.659C75.3261 459.174 63.956 468.757 57.3534 480.174Z" fill="#F2F2F2"/>
<path fill-rule="evenodd" clip-rule="evenodd" d="M248.721 258.65C256.054 263.041 263.258 265.162 266.64 264.296C275.121 262.125 275.901 231.302 269.339 219.151C262.777 206.999 229.044 201.703 227.344 225.779C226.754 234.134 230.285 241.592 235.503 247.676L226.147 291H253.324L248.721 258.65Z" fill="#E4C4B0"/>
<path fill-rule="evenodd" clip-rule="evenodd" d="M233.415 253.096C230.004 238.02 220.287 227.743 221.771 221.004C223.255 214.266 229.681 212.624 229.681 212.624C229.681 212.624 233.005 199.264 251.122 201.259C269.238 203.254 280.296 210.729 275.52 227.176C271.131 227.176 265.832 225.599 258.505 228.301C255.017 229.587 253.516 236.278 253.516 236.278H250.205C250.205 236.278 245.384 228.338 240.699 230.443C236.013 232.547 238.568 240.666 238.568 240.666L236.937 253.096H233.415Z" fill="#473425"/>
<path fill-rule="evenodd" clip-rule="evenodd" d="M192.254 445.213H273.371L284 584.604H163.25L192.254 445.213Z" fill="#C5CFD6"/>
<path fill-rule="evenodd" clip-rule="evenodd" d="M192.254 445.213H217.202L232.134 584.604H163.25L192.254 445.213Z" fill="black" fill-opacity="0.1"/>
<path fill-rule="evenodd" clip-rule="evenodd" d="M317.94 472.829C308.824 493.526 294.58 543.767 294.58 543.767L306.673 549.682C306.673 549.682 337.355 496.869 356.106 460.767C355.232 468.894 354.343 478.044 353.518 487.663C351.564 510.449 353.517 559.679 354.568 573.9C355.228 582.837 366.572 580.965 367.631 573.876C367.81 572.676 368.541 568.461 369.632 562.172C374.979 531.335 388.975 450.629 389 430.868C389.01 422.916 374.5 415.773 365.851 421.332C359.91 414.546 348.667 410.635 342.208 421.845C338.102 428.971 328.345 449.203 317.94 472.829Z" fill="#E4C4B0"/>
<path fill-rule="evenodd" clip-rule="evenodd" d="M295.445 525.167L336.949 419.906C346.892 402.783 374.768 423.391 371.378 433.322C363.68 455.869 324.53 528.864 322.236 535.581L295.445 525.167Z" fill="black"/>
<path fill-rule="evenodd" clip-rule="evenodd" d="M296.185 537.509C295.499 536.502 294.162 536.245 293.291 537.025C291.572 538.566 289.006 541.021 288.094 542.712C286.674 545.346 284.769 550.904 284.769 550.904C287.623 552.668 336.057 582.606 336.057 582.606C336.057 582.606 341.872 576.766 337.869 573.539C333.866 570.312 331.262 568.097 331.262 568.097L313.53 541.941C313.201 541.456 312.562 541.349 312.128 541.706L308.391 544.787C308.391 544.787 303.33 544.314 300.837 542.773C299.293 541.819 297.402 539.294 296.185 537.509Z" fill="black"/>
<path fill-rule="evenodd" clip-rule="evenodd" d="M354.802 566.928C353.705 566.411 352.375 566.906 351.984 568.053C351.216 570.308 350.15 573.786 350.15 575.73C350.15 578.771 351.096 584.604 351.096 584.604C354.391 584.604 410.318 584.604 410.318 584.604C410.318 584.604 412.627 576.434 407.653 575.782C402.679 575.131 399.39 574.606 399.39 574.606L371.853 561.463C371.327 561.212 370.698 561.462 370.489 562.006L368.696 566.662C368.696 566.662 364.092 568.962 361.214 568.962C359.455 568.962 356.688 567.818 354.802 566.928Z" fill="black"/>
<path fill-rule="evenodd" clip-rule="evenodd" d="M391.909 438.955C391.909 468.82 378.661 538.482 378.653 545.058L350.15 545.081C350.15 545.081 356.408 451.843 354.588 450.838C352.768 449.834 279.985 458.618 258.156 458.618C226.678 458.618 213.657 437.367 212.6 398H274.956C287.652 399.454 353.876 413.755 378.471 418.671C389 420.775 391.909 430.728 391.909 438.955Z" fill="#151515"/>
<path fill-rule="evenodd" clip-rule="evenodd" d="M326.756 398.002L299.717 372.074L293.74 391.369L320.515 405.868C328.088 417.485 332.322 422.327 333.218 420.396C333.974 418.768 333.383 417.243 332.839 415.839C332.415 414.745 332.02 413.725 332.311 412.785C332.976 410.638 338.063 410.864 342.883 411.348C347.703 411.832 346.299 409.031 345.136 407.648C340.216 403.802 334.089 400.587 326.756 398.002ZM184.958 443.69C187.442 437.109 195.902 372.969 195.902 372.969L213.615 373.06C213.615 373.06 197.209 442.222 195.902 446.454C194.203 451.952 197.088 459.939 199.045 465.355C199.348 466.193 199.628 466.969 199.866 467.665C197.151 469.252 195.847 467.334 194.472 465.313C192.919 463.029 191.276 460.613 187.408 462.963C185.914 463.871 184.5 464.945 183.118 465.993C178.346 469.616 173.962 472.944 167.998 468.138C167.052 467.376 166.016 464.508 168.519 462.266C174.756 456.681 183.744 446.907 184.958 443.69Z" fill="#E4C4B0"/>
<path fill-rule="evenodd" clip-rule="evenodd" d="M246.241 275.902L253.571 274.261C280.767 304.94 291.937 363.879 325.272 395.102L317.249 408.09C259.418 398.739 245.085 326.847 246.241 275.902Z" fill="#333333"/>
<path fill-rule="evenodd" clip-rule="evenodd" d="M214.289 396.193C214.289 396.193 258.374 396.193 279.144 396.193C282.108 396.193 281.55 390.604 281.121 387.784C276.177 355.239 256.876 320.158 256.876 273.831L238.169 270C222.696 302.498 217.345 342.51 214.289 396.193Z" fill="#DDE3E9"/>
<path fill-rule="evenodd" clip-rule="evenodd" d="M206.997 419.439C204.082 428.58 201.224 436.557 198.53 442.684H184.621C183.125 379.498 201.443 330.878 216.774 301.562C213.37 301.245 210.298 299.385 208.355 294.808C201.518 278.696 203.987 269.826 211.294 266.91C215.313 265.306 219.092 266.401 223.615 267.711C227.317 268.783 231.517 269.999 236.755 270C236.757 270 236.759 270 236.76 270C237.268 270 237.73 270.044 238.149 270.129L244.357 270.592C244.357 270.592 269.561 382.14 258.259 419.439H206.997Z" fill="#2D2D2D"/>
<path fill-rule="evenodd" clip-rule="evenodd" d="M206.997 419.439C210.821 407.444 214.743 393.443 218.517 378.984C219.921 394.907 222.261 410.9 226.156 419.439H206.997Z" fill="black" fill-opacity="0.1"/>
<circle cx="247" cy="244" r="2" fill="black"/>
</g>
<defs>
<clipPath id="clip0">
<rect width="846" height="585" fill="white"/>
</clipPath>
</defs>
</svg>
